<?xml version="1.0" encoding="UTF-8"?>
<svg xmlns="http://www.w3.org/2000/svg" xmlns:xlink="http://www.w3.org/1999/xlink" width="80px" height="28px" viewBox="0 0 80 32" version="1.1">
<g id="surface1">
<path style=" stroke:none;fill-rule:evenodd;fill:rgb(21.568627%,50.588235%,76.078431%);fill-opacity:1;" d="M 0.695312 3.75 L 0.695312 0.683594 L 3.71875 0.683594 L 3.71875 25.960938 L 0.695312 25.960938 L 0.695312 3.75 "/>
<path style=" stroke:none;fill-rule:evenodd;fill:rgb(21.568627%,50.588235%,76.078431%);fill-opacity:1;" d="M 31.425781 16.753906 C 31.503906 21.351562 34.347656 25.023438 37.777344 24.964844 C 41.207031 24.902344 43.921875 21.128906 43.84375 16.53125 C 43.765625 11.9375 40.921875 8.261719 37.496094 8.324219 C 34.066406 8.386719 31.347656 12.160156 31.425781 16.753906 Z M 56.449219 11.199219 C 56.53125 11.375 56.34375 10.9375 56.34375 10.9375 Z M 58.511719 30.222656 C 58.648438 29.984375 58.84375 29.621094 59.070312 29.167969 Z M 58.6875 9.617188 C 58.726562 9.71875 58.765625 9.824219 58.816406 9.9375 L 59.832031 12.441406 Z M 46.023438 22.234375 C 47.894531 23.941406 49.574219 24.820312 51.726562 24.820312 C 53.925781 24.839844 55.882812 23.753906 55.882812 21.671875 C 55.882812 19.929688 54.351562 18.914062 51.613281 17.746094 C 49.289062 16.738281 47.5625 16.027344 46.660156 14.566406 C 46.769531 15.203125 46.828125 15.859375 46.828125 16.53125 C 46.828125 22.171875 42.757812 26.746094 37.742188 26.746094 C 32.722656 26.746094 28.65625 22.171875 28.65625 16.53125 C 28.65625 13.128906 30.132812 10.113281 32.40625 8.257812 L 26.257812 8.257812 L 26.257812 25.960938 L 23.527344 25.960938 L 23.527344 23.050781 C 23.527344 23 23.53125 22.949219 23.53125 22.894531 L 23.53125 8.257812 L 21.121094 8.257812 L 21.121094 6.414062 L 23.566406 6.414062 C 23.878906 2.699219 26.167969 0.597656 29.335938 0.597656 C 31.390625 0.597656 32.519531 0.8125 33.171875 1.117188 L 33.171875 3.636719 C 33.160156 3.824219 33.160156 3.9375 33.160156 3.9375 C 33.132812 3.933594 33.066406 3.933594 33.066406 3.933594 C 32.078125 3.015625 31.101562 2.332031 28.824219 2.335938 C 27.007812 2.335938 25.808594 3.816406 26.226562 6.414062 L 36.449219 6.414062 C 36.871094 6.347656 37.300781 6.3125 37.742188 6.3125 C 41.382812 6.3125 44.523438 8.71875 45.972656 12.195312 C 45.957031 12.003906 45.953125 11.800781 45.953125 11.59375 C 45.953125 7.964844 49.441406 6.421875 53.070312 6.429688 C 53.207031 6.429688 53.34375 6.429688 53.476562 6.433594 C 54.753906 6.414062 56.570312 6.832031 57.679688 7.125 L 59.832031 12.441406 L 62.90625 19.988281 L 63.269531 21.199219 L 63.671875 19.988281 L 67.558594 10.300781 C 68.277344 7.636719 71.117188 6.480469 74.253906 6.488281 C 75.8125 6.480469 76.964844 6.671875 78.347656 7.160156 L 78.347656 10.085938 C 76.648438 8.84375 75.429688 8.121094 73.5 8.121094 C 71.804688 8.121094 69.765625 8.878906 69.765625 11.386719 C 69.730469 13.277344 70.855469 13.621094 74.160156 15.269531 C 76.875 16.453125 79.378906 17.761719 79.394531 20.792969 C 79.394531 25.847656 74.445312 26.722656 72.035156 26.730469 C 69.882812 26.730469 67.914062 26.199219 66.816406 25.28125 L 66.816406 21.941406 L 66.992188 22.089844 C 68.949219 23.929688 70.679688 24.878906 72.910156 24.878906 C 75.113281 24.898438 77.070312 23.8125 77.070312 21.726562 C 77.070312 19.988281 75.539062 18.972656 72.796875 17.804688 C 70.179688 16.664062 68.460938 15.910156 67.757812 14.023438 C 66.691406 16.640625 61.726562 28.808594 60.554688 31.410156 L 57.878906 31.410156 L 59.089844 29.132812 C 59.761719 27.804688 60.738281 25.71875 61.605469 23.722656 L 56.449219 11.199219 C 56.417969 11.125 56.332031 10.933594 56.160156 10.539062 C 55.761719 9.628906 55.394531 8.792969 54.28125 8.371094 C 53.6875 8.167969 53.050781 8.0625 52.3125 8.0625 C 50.617188 8.0625 48.449219 8.820312 48.449219 11.328125 C 48.414062 13.21875 49.671875 13.5625 52.972656 15.210938 C 55.6875 16.398438 58.191406 17.707031 58.207031 20.738281 C 58.207031 25.789062 53.257812 26.664062 50.847656 26.671875 C 48.9375 26.671875 47.164062 26.25 46.023438 25.511719 L 46.023438 22.234375 "/>
<path style=" stroke:none;fill-rule:evenodd;fill:rgb(21.568627%,50.588235%,76.078431%);fill-opacity:1;" d="M 9.359375 6.605469 L 9.390625 8.816406 L 9.390625 8.964844 L 9.417969 8.964844 C 9.453125 8.871094 9.5 8.792969 9.546875 8.734375 C 10.65625 7.535156 12.054688 6.347656 15.382812 6.347656 C 18.566406 6.347656 20.625 9.066406 20.707031 10.78125 L 20.710938 22.894531 L 20.710938 25.960938 L 17.984375 25.960938 L 17.984375 22.351562 L 17.980469 12.035156 C 17.980469 9.902344 16.121094 8.355469 13.839844 8.355469 C 11.945312 8.355469 9.511719 10.074219 9.429688 11.808594 L 9.429688 25.964844 L 6.703125 25.964844 L 6.703125 6.605469 L 9.359375 6.605469 "/>
</g>
</svg>
