<svg xmlns="http://www.w3.org/2000/svg" width="80" height="59" class="mb-2 md:mb-0">
                            <path
                                d="M11.273 51.25c2.188 0 3.7 1.598 3.7 3.871 0 .246-.012.438-.028.527H9.617c.07.848.852 1.465 1.746 1.465.793 0 1.219-.336 1.555-.879l1.805.72c-.602 1.187-1.774 1.917-3.36 1.917-2.261 0-3.847-1.566-3.847-3.809 0-2.187 1.617-3.812 3.757-3.812Zm12.649 0c1.246 0 2.422.672 2.875 1.684l-1.746.925c-.219-.543-.707-.894-1.145-.894-.398 0-.676.203-.676.5 0 .262.207.453.602.555l.91.234c1.363.351 2.098 1.113 2.098 2.14 0 1.454-1.23 2.477-2.918 2.477-1.442 0-2.586-.66-3.07-1.773l1.734-.953c.262.601.805.984 1.348.984.457 0 .765-.207.765-.559 0-.25-.222-.437-.66-.543l-.852-.203c-1.367-.324-2.07-1.086-2.07-2.23 0-1.375 1.145-2.344 2.805-2.344Zm9.992 0c1.246 0 2.422.672 2.875 1.684l-1.746.925c-.219-.543-.703-.894-1.145-.894-.398 0-.675.203-.675.5 0 .262.207.453.601.555l.91.234c1.368.351 2.102 1.113 2.102 2.14 0 1.454-1.234 2.477-2.922 2.477-1.441 0-2.586-.66-3.07-1.773l1.734-.953c.262.601.805.984 1.348.984.457 0 .765-.207.765-.559 0-.25-.222-.437-.66-.543l-.851-.203c-1.367-.324-2.07-1.086-2.07-2.23 0-1.375 1.144-2.344 2.804-2.344Zm12.55 0c2.188 0 3.7 1.598 3.7 3.871 0 .246-.016.438-.031.527h-5.328c.074.848.851 1.465 1.746 1.465.793 0 1.219-.336 1.558-.879l1.805.72c-.602 1.187-1.777 1.917-3.363 1.917-2.258 0-3.844-1.566-3.844-3.809 0-2.187 1.613-3.812 3.758-3.812Zm-6.066-1.934v2.125h1.832V53.2h-1.832v2.653c0 .777.336 1.086 1.04 1.086.265 0 .558-.075.792-.22v1.848c-.32.16-.804.293-1.496.293-1.527 0-2.464-.941-2.464-2.55v-3.11h-1.028v-1.758h1.028v-2.125Zm21.559 0v2.125h1.836V53.2h-1.836v2.653c0 .777.336 1.086 1.043 1.086.262 0 .555-.075.793-.22v1.848c-.324.16-.809.293-1.5.293-1.527 0-2.465-.941-2.465-2.55v-3.11h-1.027v-1.758h1.027v-2.125Zm-58.465-.894c2.235 0 3.774 1.2 3.774 3.312 0 2.094-1.54 3.313-3.774 3.313H2.203v3.637H0V48.422Zm16.723 2.855c.16 0 .32.032.367.047v2.2c-.121-.06-.324-.09-.547-.09-1.187 0-1.89.879-1.89 2.3v2.95h-2.13V51.44h2.114v1.188c.383-.836 1.144-1.352 2.086-1.352Zm35.277-.027c1.656 0 2.672 1.129 2.672 2.96v4.474H56.02V54.71c0-.953-.47-1.496-1.305-1.496-.824 0-1.367.613-1.367 1.625v3.844h-2.145V51.44h2.145v.922c.441-.703 1.175-1.113 2.144-1.113Zm-25.512.191v7.243h-2.144V51.44Zm-18.722 1.48c-.848 0-1.54.645-1.63 1.333h3.247c-.09-.777-.75-1.332-1.617-1.332Zm35.191 0c-.851 0-1.543.645-1.629 1.333h3.242c-.085-.777-.746-1.332-1.613-1.332ZM3.54 50.399H2.203v2.7H3.54c.879 0 1.512-.5 1.512-1.352 0-.848-.633-1.348-1.512-1.348Zm25.371-2.3c.688 0 1.246.57 1.246 1.246s-.558 1.246-1.246 1.246c-.691 0-1.25-.57-1.25-1.246s.559-1.246 1.25-1.246Zm0 0"
                                style="stroke:none;fill-rule:evenodd;fill:#4d4d4d;fill-opacity:1" />
                            <path
                                d="M51.852 7.219a10.603 10.603 0 0 0-2.176-3.79A10.449 10.449 0 0 0 46.219.892 9.986 9.986 0 0 0 37.98.887c-2.585 1.164-4.628 3.465-5.554 6.183-.23.68-.395 1.383-.489 2.098-.097.703-.097 1.453-.085 2.113l.039 4.07.058 8.149.024 4.074c.004.676-.004 1.356.004 2.035.003.336.015.684.015 1.012.004.328-.02.652-.027.984-.04.653-.113 1.31-.25 1.957a9.03 9.03 0 0 1-.617 1.895c-.547 1.211-1.317 2.332-2.29 3.242-1.953 1.809-4.624 2.797-7.245 2.567a9.183 9.183 0 0 1-3.758-1.098 9.513 9.513 0 0 1-3-2.582c-.41-.531-.77-1.098-1.078-1.695a9.736 9.736 0 0 1-.75-1.875 9.4 9.4 0 0 1-.301-3.977c.097-.656.246-1.3.449-1.926.21-.62.473-1.218.777-1.777a9.611 9.611 0 0 1 1.04-1.563 7.93 7.93 0 0 1 1.273-1.285c1.824-1.531 4.246-2.191 6.723-2.199 2.562.004 5.125.043 7.687.027l-.02-2.78c-2.55.054-5.101.234-7.652.425-1.426.11-2.828.46-4.148 1.031-.664.278-1.29.637-1.887 1.031a10.58 10.58 0 0 0-1.656 1.348c-.512.496-.961 1.055-1.36 1.637-.398.586-.75 1.207-1.035 1.855a13.26 13.26 0 0 0-1.12 4.11 13.496 13.496 0 0 0 .276 4.367c.332 1.441.93 2.832 1.77 4.094a11.595 11.595 0 0 0 3.246 3.238 11.023 11.023 0 0 0 4.379 1.668c.191.035.387.055.582.074.191.023.387.043.594.05.203.013.402.02.605.016.203 0 .406-.003.61-.02a10.644 10.644 0 0 0 2.398-.417 12.013 12.013 0 0 0 2.273-.91c.73-.383 1.415-.852 2.06-1.375 1.276-1.07 2.327-2.434 3.105-3.946.101-.187.19-.378.277-.574.09-.191.172-.39.246-.59.16-.394.289-.8.398-1.214.22-.825.36-1.668.454-2.508.03-.422.074-.84.085-1.262l.02-.547.023-.508.098-2.035.09-4.074.172-8.148.082-4.07.008-.509.004-.125.003-.082.008-.171c.016-.227.043-.454.078-.672a7.25 7.25 0 0 1 .329-1.297 7.118 7.118 0 0 1 1.367-2.27 6.368 6.368 0 0 1 2.11-1.55 6.185 6.185 0 0 1 2.546-.54 6.203 6.203 0 0 1 2.57.508 6.575 6.575 0 0 1 2.184 1.559 7.007 7.007 0 0 1 1.433 2.344c.32.875.465 1.832.418 2.789a7.112 7.112 0 0 1-.687 2.77 6.892 6.892 0 0 1-1.742 2.288 6.825 6.825 0 0 1-2.52 1.363 7.26 7.26 0 0 1-1.422.274l-.18.012c-.066 0-.109.007-.202.007l-.493.016-.98.027-3.664.102-.07 3.2 3.734.05.98.012.493.008.527-.004c.71-.024 1.422-.121 2.117-.293a9.953 9.953 0 0 0 3.852-1.891c1.14-.898 2.078-2.07 2.761-3.371 1.38-2.617 1.63-5.813.7-8.617"
                                style="stroke:none;fill-rule:evenodd;fill:#fd5f07;fill-opacity:1" />
                        </svg>